<mxfile host="app.diagrams.net" modified="2023-06-21T23:40:19.748Z" agent="Mozilla/5.0 (Windows NT 10.0; Win64; x64) AppleWebKit/537.36 (KHTML, like Gecko) Chrome/114.0.0.0 Safari/537.36" version="21.5.0" etag="cFZfp82S5fUU0zZ3mWmm" type="github">
  <diagram name="Page-1" id="ajPusFSGIKt3Xgt5Q1Hb">
    <mxGraphModel>
      <root>
        <mxCell id="0" />
        <mxCell id="1" parent="0" />
      </root>
    </mxGraphModel>
  </diagram>
</mxfile>
